<?xml version="1.0" encoding="UTF-8"?>
<svg version="1.1" xmlns="http://www.w3.org/2000/svg" width="512" height="512">
<path d="M0 0 C5.64995365 3.99951916 9.79519517 8.32756432 12 15 C12 15.99 12 16.98 12 18 C67.44 18 122.88 18 180 18 C180 13.71 180 9.42 180 5 C181.19281961 1.3587612 182.06380475 -0.23704677 184.9921875 -2.62353516 C189.3136461 -4.60116369 193.23789965 -4.42942625 197.9375 -4.3984375 C198.89519287 -4.40130768 199.85288574 -4.40417786 200.83959961 -4.40713501 C202.86019483 -4.4091724 204.88080992 -4.40366533 206.90136719 -4.39111328 C209.98938209 -4.37505521 213.07608818 -4.39097323 216.1640625 -4.41015625 C218.13021121 -4.40817376 220.09635912 -4.40432997 222.0625 -4.3984375 C223.44393188 -4.40754654 223.44393188 -4.40754654 224.85327148 -4.4168396 C229.71177972 -4.36368764 233.07757814 -4.19658154 237 -1 C241.66493887 5.11267852 240 9.50634047 240 18 C295.44 18 350.88 18 408 18 C408.33 16.02 408.66 14.04 409 12 C412.61542403 5.19449595 418.68531072 -0.23791711 425.79296875 -3.140625 C433.90708235 -5.31493071 443.49160302 -5.36595403 451.0078125 -1.32421875 C458.8127792 3.86378852 463.04590616 9.13771847 466 18 C466.8251916 29.28212784 465.93637744 37.3336394 458.75 46.3125 C453.98339559 51.46947287 447.79029213 54.7227724 440.7421875 55.23828125 C429.43734644 55.45524285 422.15691465 53.70495954 413.73046875 45.8671875 C410.06314905 41.91012471 408 38.53862468 408 33 C353.55 33.495 353.55 33.495 298 34 C305.26 37.3 312.52 40.6 320 44 C349.3391907 60.29955039 376.70927572 82.15979114 396.74121094 109.296875 C397.97069396 110.96034931 399.22216212 112.60527552 400.4765625 114.25 C420.11088424 140.40573537 432.75160538 171.08642384 439.8125 202.875 C440.00755127 203.75285156 440.20260254 204.63070312 440.40356445 205.53515625 C443.42831458 219.98777795 444.34995945 234.12852596 444.31567383 248.85229492 C444.31252306 251.66690213 444.33604324 254.48044415 444.36132812 257.29492188 C444.42183197 274.36789582 442.38643589 290.98402923 438.25 307.5625 C437.99323486 308.60494873 437.73646973 309.64739746 437.47192383 310.72143555 C424.72814396 360.96450633 394.58683278 407.83071591 352.68554688 438.75 C351.07109239 439.94727795 349.48019716 441.17612883 347.890625 442.40625 C340.49006463 448.03186528 332.58910057 452.68265203 324.5 457.25 C323.47994873 457.82854736 322.45989746 458.40709473 321.40893555 459.00317383 C313.80234003 463.22178989 306.03973646 466.70448628 298 470 C299.55895996 470.00616333 299.55895996 470.00616333 301.14941406 470.01245117 C305.01140705 470.03424974 308.87238221 470.08854527 312.73388672 470.15258789 C314.40403476 470.17576188 316.07432881 470.19016225 317.74462891 470.19555664 C320.14838579 470.20485136 322.54984841 470.2458466 324.953125 470.29296875 C325.69806213 470.2890361 326.44299927 470.28510345 327.21051025 470.28105164 C330.99878398 470.38729215 332.68491049 470.70869256 335.50683594 473.31762695 C337.5460052 476.98086316 337.10531449 479.02086785 336 483 C334.68461895 484.68838978 334.68461895 484.68838978 333 486 C329.97122923 486.28079077 327.15047178 486.3786059 324.12231445 486.34057617 C322.76103424 486.34123329 322.76103424 486.34123329 321.37225342 486.34190369 C318.36904474 486.33981169 315.36639255 486.31646112 312.36328125 486.29296875 C310.28248906 486.28737426 308.20169293 486.28310347 306.12089539 486.28010559 C300.64139924 486.26864526 295.16214124 486.23916773 289.68273926 486.20599365 C284.09256207 486.17531844 278.50234645 486.1616057 272.91210938 486.14648438 C261.94130155 486.11429927 250.97067057 486.06308847 240 486 C240.01377686 486.89638184 240.02755371 487.79276367 240.04174805 488.71630859 C240.05246338 489.89016113 240.06317871 491.06401367 240.07421875 492.2734375 C240.08799561 493.43794434 240.10177246 494.60245117 240.1159668 495.80224609 C239.9770919 499.63168492 239.33341894 501.94241656 237 505 C232.36087617 508.78065851 227.76679338 508.4360511 222.0625 508.3984375 C221.10480713 508.40130768 220.14711426 508.40417786 219.16040039 508.40713501 C217.13980517 508.4091724 215.11919008 508.40366533 213.09863281 508.39111328 C210.01061791 508.37505521 206.92391182 508.39097323 203.8359375 508.41015625 C201.86978879 508.40817376 199.90364088 508.40432997 197.9375 508.3984375 C197.01654541 508.40451019 196.09559082 508.41058289 195.14672852 508.4168396 C190.28822028 508.36368764 186.92242186 508.19658154 183 505 C178.33506113 498.88732148 180 494.49365953 180 486 C124.56 486 69.12 486 12 486 C11.67 487.98 11.34 489.96 11 492 C7.38457597 498.80550405 1.31468928 504.23791711 -5.79296875 507.140625 C-13.91112075 509.31601287 -23.48427107 509.35960758 -31.0078125 505.328125 C-37.68456339 500.87695774 -42.9930474 496.04779675 -45.58203125 488.24609375 C-47.04989492 480.3580413 -47.45470294 469.9790346 -43 463 C-38.00008303 456.26587759 -32.52368372 450.61579396 -24 449 C-12.70884521 448.19818342 -4.68013862 449.0525951 4.3125 456.25 C7.95871133 459.62693026 10.43553488 463.26543451 12 468 C12 468.99 12 469.98 12 471 C48.3 470.67 84.6 470.34 122 470 C115.4 467.03 108.8 464.06 102 461 C98.62421283 459.23698459 95.37382876 457.51225656 92.125 455.5625 C91.35091797 455.10568848 90.57683594 454.64887695 89.77929688 454.17822266 C64.46924842 439.02040875 40.79692267 418.4648369 23.25 394.68554688 C22.05272205 393.07109239 20.82387117 391.48019716 19.59375 389.890625 C-0.19814176 363.86370368 -12.78703161 332.87343883 -19.8125 301.125 C-20.00739014 300.2474707 -20.20228027 299.36994141 -20.40307617 298.46582031 C-23.62482393 283.07980944 -24.37479322 268.04157821 -24.3125 252.375 C-24.31034485 251.40067017 -24.3081897 250.42634033 -24.30596924 249.42248535 C-24.25625815 235.42924617 -24.00809194 221.72140335 -21 208 C-20.79600586 207.04899414 -20.59201172 206.09798828 -20.38183594 205.11816406 C-11.75263682 165.91622747 5.01112492 130.60911954 31 100 C31.67546875 99.20078125 32.3509375 98.4015625 33.046875 97.578125 C38.52292445 91.19694341 38.52292445 91.19694341 42.8125 90.625 C46 91 46 91 48.875 93.125 C51.41043423 96.55529338 51.47032065 97.82982356 51 102 C49.53125 104.421875 49.53125 104.421875 47.5 106.75 C46.76265625 107.62140625 46.0253125 108.4928125 45.265625 109.390625 C44.51796875 110.25171875 43.7703125 111.1128125 43 112 C25.05369835 133.20926559 11.88005884 157.73405834 3 184 C2.6275415 185.09272217 2.6275415 185.09272217 2.24755859 186.20751953 C-3.49040274 203.38163943 -7.06633489 221.96962381 -7.23828125 240.08984375 C-7.24802979 240.94344482 -7.25777832 241.7970459 -7.26782227 242.67651367 C-7.43845582 261.49398168 -7.24461167 279.57064252 -3 298 C-2.81808105 298.82822266 -2.63616211 299.65644531 -2.44873047 300.50976562 C3.90768479 328.93470033 15.98622512 355.41099436 33 379 C33.4316748 379.60134766 33.86334961 380.20269531 34.30810547 380.82226562 C40.57749352 389.46868444 47.60910749 397.30876645 55 405 C55.85722656 405.89847656 56.71445313 406.79695313 57.59765625 407.72265625 C73.04243508 423.5590618 91.41605564 435.88962516 111 446 C111.6796582 446.35545898 112.35931641 446.71091797 113.05957031 447.07714844 C133.85929829 457.83562843 156.91031045 464.40406474 180 468 C179.96519531 467.34773438 179.93039063 466.69546875 179.89453125 466.0234375 C179.72632006 460.59261899 179.74711183 456.59891087 183 452 C187.61997381 448.2077715 192.24424438 448.56402168 197.9375 448.6015625 C198.89519287 448.59869232 199.85288574 448.59582214 200.83959961 448.59286499 C202.86019483 448.5908276 204.88080992 448.59633467 206.90136719 448.60888672 C209.98938209 448.62494479 213.07608818 448.60902677 216.1640625 448.58984375 C218.13021121 448.59182624 220.09635912 448.59567003 222.0625 448.6015625 C223.44393188 448.59245346 223.44393188 448.59245346 224.85327148 448.5831604 C229.70516081 448.63623995 233.09207919 448.79224834 237 452 C239.68168992 455.79135472 240.14436255 458.69241474 240.07421875 463.21484375 C240.06350342 464.11195068 240.05278809 465.00905762 240.04174805 465.93334961 C240.02797119 466.61534424 240.01419434 467.29733887 240 468 C299.94876932 457.8451725 352.25798608 427.50112084 387.9375 377.9375 C394.0078804 369.33154918 399.16458072 360.3462435 404 351 C404.3501416 350.33629395 404.7002832 349.67258789 405.06103516 348.98876953 C418.48496327 323.30290805 426.96254766 292.96778382 427.23828125 263.91015625 C427.24802979 263.05655518 427.25777832 262.2029541 427.26782227 261.32348633 C427.43845582 242.50601832 427.24461167 224.42935748 423 206 C422.81808105 205.17177734 422.63616211 204.34355469 422.44873047 203.49023438 C416.09231521 175.06529967 404.01377488 148.58900564 387 125 C386.5683252 124.39865234 386.13665039 123.79730469 385.69189453 123.17773438 C379.42250648 114.53131556 372.39089251 106.69123355 365 99 C363.71416016 97.65228516 363.71416016 97.65228516 362.40234375 96.27734375 C347.55688605 81.05545606 329.83864331 68.76244618 311 59 C310.30277832 58.63310059 309.60555664 58.26620117 308.88720703 57.88818359 C287.19206701 46.59770581 264.03243408 40.07089629 240 36 C240.01377686 36.68199463 240.02755371 37.36398926 240.04174805 38.06665039 C240.05246338 38.96375732 240.06317871 39.86086426 240.07421875 40.78515625 C240.08799561 41.67340088 240.10177246 42.56164551 240.1159668 43.47680664 C239.95498949 46.97933395 239.01569672 49.15022188 237 52 C232.38002619 55.7922285 227.75575562 55.43597832 222.0625 55.3984375 C221.10480713 55.40130768 220.14711426 55.40417786 219.16040039 55.40713501 C217.13980517 55.4091724 215.11919008 55.40366533 213.09863281 55.39111328 C210.01061791 55.37505521 206.92391182 55.39097323 203.8359375 55.41015625 C201.86978879 55.40817376 199.90364088 55.40432997 197.9375 55.3984375 C197.01654541 55.40451019 196.09559082 55.41058289 195.14672852 55.4168396 C190.29483919 55.36376005 186.90792081 55.20775166 183 52 C180.31831008 48.20864528 179.85563745 45.30758526 179.92578125 40.78515625 C179.93649658 39.88804932 179.94721191 38.99094238 179.95825195 38.06665039 C179.97202881 37.38465576 179.98580566 36.70266113 180 36 C142.49240225 42.35347797 107.58017879 55.84151707 77.35546875 79.1875 C73.41654463 82.21844659 71.03813349 83.52534158 65.9453125 83.375 C64 83 64 83 61.4375 80.9375 C60 78 60 78 59.6875 74.6875 C64.55093684 61.0235584 87.36892336 51.1571406 99.375 44.5625 C100.25309326 44.0787793 101.13118652 43.59505859 102.03588867 43.09667969 C108.59242842 39.56995856 115.0499082 36.89587158 122 34 C85.7 33.67 49.4 33.34 12 33 C11.67 34.98 11.34 36.96 11 39 C7.38457597 45.80550405 1.31468928 51.23791711 -5.79296875 54.140625 C-13.91112075 56.31601287 -23.48427107 56.35960758 -31.0078125 52.328125 C-37.68456339 47.87695774 -42.9930474 43.04779675 -45.58203125 35.24609375 C-47.04989492 27.3580413 -47.45470294 16.9790346 -43 10 C-33.00423857 -3.46275976 -15.16825781 -10.08243019 0 0 Z M196 11 C196 20.57 196 30.14 196 40 C205.24 40 214.48 40 224 40 C224 30.43 224 20.86 224 11 C214.76 11 205.52 11 196 11 Z M-25 14 C-29.2962323 18.51655191 -30.35944799 21.59979397 -30.28125 27.6796875 C-29.8448012 31.28039012 -28.36531761 33.31504488 -26 36 C-22.80637287 38.37474838 -19.99557063 39.81415951 -16 40 C-10.48531318 38.76471015 -7.11775464 36.86369723 -4 32 C-2.26295845 28.5259169 -2.53958384 24.79843331 -3 21 C-5.68583322 15.62833355 -8.78787301 13.2153994 -14.3125 11.125 C-18.3155769 10.93881038 -21.50632229 12.07774636 -25 14 Z M428 14 C423.7037677 18.51655191 422.64055201 21.59979397 422.71875 27.6796875 C423.1551988 31.28039012 424.63468239 33.31504488 427 36 C430.19362713 38.37474838 433.00442937 39.81415951 437 40 C442.51468682 38.76471015 445.88224536 36.86369723 449 32 C450.73704155 28.5259169 450.46041616 24.79843331 450 21 C447.31416678 15.62833355 444.21212699 13.2153994 438.6875 11.125 C434.6844231 10.93881038 431.49367771 12.07774636 428 14 Z M196 464 C196 473.57 196 483.14 196 493 C205.24 493 214.48 493 224 493 C224 483.43 224 473.86 224 464 C214.76 464 205.52 464 196 464 Z M-25 467 C-29.2962323 471.51655191 -30.35944799 474.59979397 -30.28125 480.6796875 C-29.8448012 484.28039012 -28.36531761 486.31504488 -26 489 C-22.80637287 491.37474838 -19.99557063 492.81415951 -16 493 C-10.48531318 491.76471015 -7.11775464 489.86369723 -4 485 C-2.26295845 481.5259169 -2.53958384 477.79843331 -3 474 C-5.68583322 468.62833355 -8.78787301 466.2153994 -14.3125 464.125 C-18.3155769 463.93881038 -21.50632229 465.07774636 -25 467 Z " fill="#FFFFFF" transform="translate(46,4)"/>
<path d="M0 0 C0.78569366 0.00054382 1.57138733 0.00108765 2.38088989 0.00164795 C16.10560318 0.04508993 29.23702452 1.1828752 42.625 4.375 C43.53233887 4.58930664 44.43967773 4.80361328 45.37451172 5.02441406 C58.08405156 8.12893099 69.90109252 12.59884445 81.625 18.375 C82.27662109 18.69194824 82.92824219 19.00889648 83.59960938 19.33544922 C125.61173718 39.98820012 158.44903775 77.86094262 174.04125977 121.91943359 C180.77130298 141.71117196 184.05475832 161.8619139 184 182.75 C183.99918427 183.9285405 183.99918427 183.9285405 183.99835205 185.13088989 C183.95491007 198.85560318 182.8171248 211.98702452 179.625 225.375 C179.41069336 226.28233887 179.19638672 227.18967773 178.97558594 228.12451172 C175.87191398 240.83059233 171.41052233 252.65828661 165.625 264.375 C165.29741699 265.04257324 164.96983398 265.71014648 164.63232422 266.39794922 C147.17428154 301.54889613 118.31642749 329.46691256 83.625 347.375 C83.00947266 347.69307617 82.39394531 348.01115234 81.75976562 348.33886719 C56.78212216 361.0400387 29.16389632 366.81987532 1.25 366.75 C0.46530334 366.74978851 -0.31939331 366.74957703 -1.12786865 366.74935913 C-14.85557726 366.71263169 -27.97442416 365.50462978 -41.375 362.375 C-42.1798584 362.19308105 -42.9847168 362.01116211 -43.81396484 361.82373047 C-89.02090097 351.33077018 -129.66092413 321.40450741 -154.375 282.375 C-172.78775992 252.2075963 -182.84299897 219.47535085 -182.75 184 C-182.74945618 183.21430634 -182.74891235 182.42861267 -182.74835205 181.61911011 C-182.70491007 167.89439682 -181.5671248 154.76297548 -178.375 141.375 C-178.16069336 140.46766113 -177.94638672 139.56032227 -177.72558594 138.62548828 C-174.62106901 125.91594844 -170.15115555 114.09890748 -164.375 102.375 C-164.05805176 101.72337891 -163.74110352 101.07175781 -163.41455078 100.40039062 C-142.65503434 58.17107881 -104.78840923 25.55768008 -60.62158203 9.66674805 C-40.9984681 3.01757688 -20.66359371 -0.05416981 0 0 Z M-34.375 19.375 C-35.60734375 19.6534375 -36.8396875 19.931875 -38.109375 20.21875 C-81.56332876 30.85305092 -118.77497566 57.71311497 -142.25390625 95.828125 C-142.96462181 97.00820558 -143.6716656 98.19050538 -144.375 99.375 C-144.72159668 99.95830078 -145.06819336 100.54160156 -145.42529297 101.14257812 C-153.9850189 115.7934195 -159.64230796 131.85438152 -163.375 148.375 C-163.6740625 149.60734375 -163.973125 150.8396875 -164.28125 152.109375 C-173.35855708 193.67415491 -162.69604232 239.10650495 -140.30395508 274.62109375 C-135.89077809 281.36580809 -130.73756189 287.37620195 -125.375 293.375 C-124.12439782 294.83281696 -122.87430936 296.29107497 -121.625 297.75 C-120.54761255 298.96363785 -119.46464475 300.17235505 -118.375 301.375 C-117.88386719 301.92027344 -117.39273438 302.46554687 -116.88671875 303.02734375 C-107.27763399 313.16099393 -95.33632314 321.27255317 -83.375 328.375 C-82.79169922 328.72159668 -82.20839844 329.06819336 -81.60742188 329.42529297 C-66.9565805 337.9850189 -50.89561848 343.64230796 -34.375 347.375 C-33.14265625 347.6740625 -31.9103125 347.973125 -30.640625 348.28125 C-2.40588837 354.44741701 29.70439235 351.35419077 56.625 341.375 C57.29660156 341.12911133 57.96820313 340.88322266 58.66015625 340.62988281 C74.95333857 334.56181444 90.15262343 326.40619662 103.625 315.375 C104.15963867 314.9404248 104.69427734 314.50584961 105.24511719 314.05810547 C121.6508859 300.67194926 134.81143912 285.58625862 145.625 267.375 C145.97159668 266.79169922 146.31819336 266.20839844 146.67529297 265.60742188 C155.2350189 250.9565805 160.89230796 234.89561848 164.625 218.375 C164.9240625 217.14265625 165.223125 215.9103125 165.53125 214.640625 C174.44567115 173.821696 164.48714732 128.31746487 142.1875 93.5 C137.75213229 86.76196073 132.94622071 80.44406795 127.625 74.375 C126.91988281 73.54871094 126.21476562 72.72242188 125.48828125 71.87109375 C98.18247265 40.5453995 58.9866901 20.49053773 17.625 16.375 C12.04510352 16.03991551 6.46296611 16.03478632 0.875 16.0625 C-0.24402206 16.06473572 -0.24402206 16.06473572 -1.38565063 16.0670166 C-12.63941269 16.10739208 -23.40939018 16.71388967 -34.375 19.375 Z " fill="#FFFFFF" transform="translate(255.375,72.625)"/>
<path d="M0 0 C8.40298649 9.17326025 12.02851101 20.50264813 11.5625 32.75 C10.33071125 44.5281149 5.44795619 53.51683616 -3.375 61.375 C-13.29902387 68.67786948 -24.18138387 71.40920836 -36.375 69.75 C-47.21403521 67.64048226 -56.06862988 62.07081865 -62.94140625 53.3984375 C-64.24757376 51.44113574 -65.33774501 49.48611898 -66.375 47.375 C-66.69339844 46.75753906 -67.01179688 46.14007813 -67.33984375 45.50390625 C-71.19739158 36.38444986 -70.85592444 23.61331002 -67.8125 14.3125 C-63.57220335 4.63098353 -56.24897023 -3.39884279 -46.63671875 -7.91015625 C-30.44575602 -14.15812112 -13.12727317 -11.9338847 0 0 Z M-46.375 11.375 C-51.50464178 16.64328074 -53.54164086 21.96471873 -53.875 29.1875 C-53.68371719 36.12584933 -51.58011521 41.8003943 -46.91796875 47 C-41.54464631 51.76368427 -35.56334449 54.3487172 -28.375 54.375 C-20.56986638 53.74621515 -15.09421152 50.40571909 -9.8359375 44.70703125 C-5.59877728 39.29288209 -4.0299988 33.71351746 -4.5 26.875 C-5.71943441 18.90072104 -9.211749 13.82289216 -15.43359375 8.78125 C-25.55915949 1.44683618 -37.14196162 4.28057185 -46.375 11.375 Z " fill="#FFFFFF" transform="translate(388.375,226.625)"/>
<path d="M0 0 C8.09918857 7.54288067 12.69053714 17.61464457 13.15234375 28.58911133 C13.35975076 40.96871722 9.63724553 51.38375113 1.16015625 60.52734375 C-7.93405225 68.93681184 -19.11666402 72.16465599 -31.390625 71.69140625 C-41.82347821 70.36681625 -51.36335781 65.86895939 -58.5 58.078125 C-65.98545276 48.38713705 -69.40406283 38.01259273 -68.25 25.8125 C-66.38938025 14.89894888 -61.17432145 4.60960889 -52.25 -2.1875 C-35.28672793 -12.84801786 -15.84208631 -12.67366905 0 0 Z M-45.25 13.8125 C-49.78538268 18.34788268 -52.09390309 23.93409212 -52.3515625 30.3359375 C-51.82869829 38.42788365 -49.30312473 44.20551322 -43.3125 49.6875 C-38.04866631 53.95285326 -33.08193281 55.67281364 -26.25 55.8125 C-18.8990979 54.76237113 -12.31552375 51.66442889 -7.60546875 45.74609375 C-3.23625682 38.9089696 -2.40520614 32.87733438 -3.25 24.8125 C-5.76077065 16.40024508 -10.767393 11.83005889 -18.265625 7.703125 C-28.19648115 3.24596909 -37.69749831 6.94658937 -45.25 13.8125 Z " fill="#FFFFFF" transform="translate(215.25,225.1875)"/>
<path d="M0 0 C2.1755563 2.47866751 2.93965738 3.6454871 3.5 6.9375 C2.81810427 11.11411135 1.36996335 12.50915752 -2 15 C-6.94334642 16.01113904 -10.40448712 14.01621723 -14.77734375 11.96484375 C-21.02233885 9.25392321 -26.72590135 9.87804707 -33 12 C-39.68722139 15.60081152 -44.12152686 20.74377117 -46.4921875 27.9375 C-48.28814631 35.2318558 -46.74053736 41.59211566 -43 48 C-37.71601587 53.98998619 -32.19430829 57.19447173 -24.18359375 58.02734375 C-18.76099424 57.95944 -14.34425279 56.05202392 -10.125 52.75 C-7.6699869 49.57292422 -6.3972574 46.75053301 -5 43 C-6.33804688 42.96132813 -6.33804688 42.96132813 -7.703125 42.921875 C-9.45882812 42.83679688 -9.45882812 42.83679688 -11.25 42.75 C-12.41015625 42.70359375 -13.5703125 42.6571875 -14.765625 42.609375 C-18.51515879 41.9029411 -19.70846085 40.99157974 -22 38 C-23.17590974 34.31548282 -23.33481338 32.71745725 -21.6875 29.1875 C-20 27 -20 27 -18 26 C-13.7137379 25.72918505 -9.41884638 25.7683694 -5.125 25.75 C-3.92746094 25.729375 -2.72992188 25.70875 -1.49609375 25.6875 C-0.34496094 25.68234375 0.80617188 25.6771875 1.9921875 25.671875 C3.57555908 25.65785645 3.57555908 25.65785645 5.19091797 25.64355469 C8.38706994 26.04911543 9.72470024 26.7517009 12 29 C14.85165167 37.55495502 12.13043176 47.40894676 8.44140625 55.3125 C3.79962939 63.96708666 -1.92294009 69.28471791 -10.9375 73.3125 C-23.19202069 76.06351485 -34.03148733 74.84644402 -45.171875 68.82421875 C-54.49073105 62.81329917 -60.1270157 54.66328025 -63.3125 44.125 C-65.54021236 33.3324906 -64.08185447 22.35726354 -58.71484375 12.68359375 C-57.2666118 10.62218281 -55.73594734 8.82526902 -54 7 C-53.35160156 6.31164062 -52.70320312 5.62328125 -52.03515625 4.9140625 C-45.12226315 -1.81131994 -36.24089078 -6.48137587 -26.47265625 -7.06640625 C-17.06625833 -6.81378577 -7.8324017 -5.57039178 0 0 Z " fill="#FFFFFF" transform="translate(299,222)"/>
<path d="M0 0 C7.8049667 5.18800727 12.03809366 10.46193722 14.9921875 19.32421875 C15.8173791 30.60634659 14.92856494 38.65785815 7.7421875 47.63671875 C2.97558309 52.79369162 -3.21752037 56.04699115 -10.265625 56.5625 C-21.57046606 56.7794616 -28.85089785 55.02917829 -37.27734375 47.19140625 C-40.94466345 43.23434346 -43.0078125 39.86284343 -43.0078125 34.32421875 C-43.60027771 34.3331012 -44.19274292 34.34198364 -44.80316162 34.35113525 C-50.96730912 34.43960171 -57.13127643 34.49995001 -63.29589844 34.54394531 C-65.59675419 34.56406563 -67.89755879 34.59136509 -70.19824219 34.62597656 C-73.50468567 34.67447487 -76.81045335 34.69718353 -80.1171875 34.71484375 C-81.14648376 34.73548889 -82.17578003 34.75613403 -83.23626709 34.77740479 C-90.33958413 34.77963867 -90.33958413 34.77963867 -93.65722656 32.51855469 C-95.65352626 29.27510897 -95.54016835 27.05070967 -95.0078125 23.32421875 C-93.65722656 21.12988281 -93.65722656 21.12988281 -91.0078125 19.32421875 C-87.37628289 18.76141857 -83.78410228 18.86004449 -80.1171875 18.93359375 C-78.52756195 18.94208344 -78.52756195 18.94208344 -76.90582275 18.95074463 C-73.52269222 18.97312635 -70.14062266 19.02332777 -66.7578125 19.07421875 C-64.46355697 19.09428135 -62.16928483 19.11253254 -59.875 19.12890625 C-54.25224247 19.17299695 -48.63010329 19.23992739 -43.0078125 19.32421875 C-42.86609619 18.37804687 -42.72437988 17.431875 -42.57836914 16.45703125 C-41.28761714 9.36976994 -35.6898311 4.69539096 -30.1328125 0.55078125 C-21.43784264 -4.4680065 -8.86788374 -4.76857899 0 0 Z M-23.0078125 15.32421875 C-27.3040448 19.84077066 -28.36726049 22.92401272 -28.2890625 29.00390625 C-27.8526137 32.60460887 -26.37313011 34.63926363 -24.0078125 37.32421875 C-20.81418537 39.69896713 -18.00338313 41.13837826 -14.0078125 41.32421875 C-8.49312568 40.0889289 -5.12556714 38.18791598 -2.0078125 33.32421875 C-0.27077095 29.85013565 -0.54739634 26.12265206 -1.0078125 22.32421875 C-3.69364572 16.9525523 -6.79568551 14.53961815 -12.3203125 12.44921875 C-16.3233894 12.26302913 -19.51413479 13.40196511 -23.0078125 15.32421875 Z " fill="#FFFFFF" transform="translate(497.0078125,455.67578125)"/>
<path d="M0 0 C2.32441815 3.48662723 2.24401741 4.82577923 2.22705078 8.94018555 C2.22689972 10.16122482 2.22674866 11.3822641 2.22659302 12.64030457 C2.21627045 13.95912125 2.20594788 15.27793793 2.1953125 16.63671875 C2.19158161 18.00006401 2.188735 19.36341196 2.18673706 20.72676086 C2.17910653 24.31234154 2.15946315 27.89775979 2.1373291 31.48327637 C2.11685811 35.14312544 2.10773267 38.80300079 2.09765625 42.46289062 C2.0762166 49.64200107 2.04208779 56.82097776 2 64 C2.83192871 63.9685791 2.83192871 63.9685791 3.68066406 63.93652344 C6.20359023 63.85316452 8.72622649 63.80128132 11.25 63.75 C12.12269531 63.71648437 12.99539062 63.68296875 13.89453125 63.6484375 C20.35408716 63.54981833 20.35408716 63.54981833 23.578125 65.796875 C25.66746523 69.03420436 25.53803486 71.233756 25 75 C22.73686977 78.11671781 21.45531855 78.91274383 17.63671875 79.64453125 C-7.65213444 80.72012046 -7.65213444 80.72012046 -11.85546875 77.640625 C-14.33541059 74.08575957 -14.13702527 70.68493054 -14.16113281 66.49658203 C-14.16609772 65.84093262 -14.17106262 65.1852832 -14.17617798 64.50976562 C-14.19077353 62.34243721 -14.19759706 60.17518197 -14.203125 58.0078125 C-14.20887842 56.49950153 -14.21463613 54.99119058 -14.22039795 53.48287964 C-14.23090039 50.32045145 -14.23674806 47.15804864 -14.24023438 43.99560547 C-14.24571881 39.94809551 -14.26974863 35.90092199 -14.29820633 31.85351753 C-14.31685148 28.73765083 -14.32203929 25.62186489 -14.32357025 22.50594711 C-14.32659288 21.01403844 -14.33460828 19.52213106 -14.34775543 18.03027725 C-14.36485658 15.94066171 -14.36292641 13.85186462 -14.35644531 11.76220703 C-14.36009094 10.57434601 -14.36373657 9.38648499 -14.36749268 8.16262817 C-13.96096079 4.66403006 -13.0973582 2.80190926 -11 0 C-6.86965809 -2.56750984 -4.31676366 -2.01448971 0 0 Z " fill="#FFFFFF" transform="translate(126,217)"/>
</svg>
